# xmcd CD database file
#
# Track frame offsets:
#	150
#	14417
#	28949
#	38239
#	51856
#	61243
#	77642
#	92278
#	104185
#	114345
#	131591
#	140970
#	153247
#	165745
#	177372
#	190120
#	200937
#	218980
#	234800
#	246340
#	264730
#	285175
#	304452
#	315622
#
# Disc length: 4335 seconds
#
# Revision: 1
# Processed by: cddbd v1.5.1PL0 Copyright (c) Steve Scherf et al.
# Submitted via: CDex 1.51
#
DISCID=5e10ed18
DTITLE=Marlene Dietrich - Platinum Series
DYEAR=2003
DGENRE=Jazz
TTITLE0=Lili Marlene
TTITLE1=Sie Lieb Zu Mir (Mean to Me)
TTITLE2=Das Hobellied
TTITLE3=Fraulein Annie Wohnt Schon Lange Nicht Hier (Annie Doesn't Live Here Anymore)
TTITLE4=Du Liegst Mir Im Herzen (You Have Taken My Heart)
TTITLE5=Schlittenfahrt (The Surrey with the Fringe on Top)
TTITLE6=Sag'Mir' Adieu (Time on My Hands)
TTITLE7=Dass Ich Dich Wiederseh' (Taking a Chance on Love)
TTITLE8=Muss I Denn
TTITLE9=Mein Mann Ist Verhindert (Miss Otis Regrets)
TTITLE10=Du Hast Die Seele Mein (You Have Taken My Soul)
TTITLE11=Ich Hab' Die Ganze Nach Geweint (I Couldn't Sleep a Wink Last Night)
TTITLE12=Look Me Over Closely
TTITLE13=You're the Coffee in My Cream
TTITLE14=My Blue Heaven
TTITLE15=The Boys in the Backroom
TTITLE16=Das Lied Ist Aus
TTITLE17=Je tire ma reverence
TTITLE18=Alright, Okay, You Win
TTITLE19=Makin' Whoopee
TTITLE20=I've Grown Accustomed to Her Face
TTITLE21=One for My Baby
TTITLE22=Maybe I'll Come Back
TTITLE23=Luar Do Serto
EXTD=YEAR: 2003
EXTT0=
EXTT1=
EXTT2=
EXTT3=
EXTT4=
EXTT5=
EXTT6=
EXTT7=
EXTT8=
EXTT9=
EXTT10=
EXTT11=
EXTT12=
EXTT13=
EXTT14=
EXTT15=
EXTT16=
EXTT17=
EXTT18=
EXTT19=
EXTT20=
EXTT21=
EXTT22=
EXTT23=
PLAYORDER=
